<svg id="Layer_1" data-name="Layer 1" xmlns="http://www.w3.org/2000/svg" viewBox="0 0 446.68 118.31"><defs><style>.cls-1{fill:#231f20;}.cls-2{fill:none;stroke:#231f20;stroke-miterlimit:10;stroke-width:2px;}</style></defs><path class="cls-1" d="M1023.2-808.25l-2.49,2.17,2.49,2.17a75.46,75.46,0,0,1,25,56h-27.45a47.69,47.69,0,0,0-15.81-35.51l-4.66-4.19-4.65,4.19a47.85,47.85,0,0,0-16,35.51H952.17a75,75,0,0,1,25.12-56l2.33-2.17-2.33-2.17a75,75,0,0,1-25.12-56h27.45a47.86,47.86,0,0,0,16,35.51l4.65,4.19,4.66-4.19a47.71,47.71,0,0,0,15.81-35.51h27.45A75.46,75.46,0,0,1,1023.2-808.25Z" transform="translate(-601.48 865.23)"/><path class="cls-1" d="M697.47-813.52H715.3v65.59h-96v-88.86H601.48v-27.44h109v13.64C710.5-839.42,708.48-824.69,697.47-813.52Zm-50.71-23.27v20.16c24-.15,32.57-6.51,35.2-20.16Zm41.1,47.61h-41.1v13.8h41.1Z" transform="translate(-601.48 865.23)"/><path class="cls-1" d="M832.23-832.29v84.36H768.18a32.09,32.09,0,0,1-31.94-31.94v-56.92H718.4v-27.44h81.73A32.14,32.14,0,0,1,832.23-832.29Zm-27.45,0a4.64,4.64,0,0,0-4.65-4.5H763.68v56.92a4.5,4.5,0,0,0,4.5,4.49h36.6Z" transform="translate(-601.48 865.23)"/><path class="cls-2" d="M913.17-864.23h27.45c0,44.66-16.44,71.8-30.24,86.68-17.52,18.77-41.41,29.62-65.75,29.62v-27.45c13,0,25.9-4.65,36.91-12.87-23.11-12.4-36.91-40.16-36.91-76h27.45c0,28.53,10.85,49.15,28.22,54.27C908.67-824.69,913.17-843.14,913.17-864.23Z" transform="translate(-601.48 865.23)"/></svg>