<svg id="Layer_1" data-name="Layer 1" xmlns="http://www.w3.org/2000/svg" viewBox="0 0 1869.94 1255.06"><defs><style>.cls-1,.cls-2{font-size:540.51px;font-family:TheLastShuriken-Regular, The Last Shuriken;}.cls-1,.cls-4{fill:#99ca3c;}.cls-2{fill:#231f20;}.cls-3{letter-spacing:-0.06em;}.cls-5{fill:none;stroke:#231f20;stroke-miterlimit:10;stroke-width:4px;}</style></defs><text class="cls-1" transform="translate(1492.13 936)">X</text><text class="cls-2" transform="translate(644.62 459.43)"><tspan class="cls-3">B</tspan><tspan class="cls-4" x="407.54" y="0">O</tspan><tspan x="847.52" y="0">Y</tspan></text><path class="cls-5" d="M1124.6,530.62h344.95a0,0,0,0,1,0,0V936a0,0,0,0,1,0,0H1102.14a0,0,0,0,1,0,0V553.08A22.46,22.46,0,0,1,1124.6,530.62Z"/><path class="cls-5" d="M538.4-2288.47v534.75H442.73v-292.66a104.8,104.8,0,0,0-58.08-93.81l-84.89-42.27-.27,428.74H203.82V-2540H103v786.29H7.3v-718.53A67.76,67.76,0,0,0-60.45-2540h-55.49v-95.67H521.82V-2540H299.56l.14,187.79a119.78,119.78,0,0,0,66.37,107.11l76.66,38.17v-81.53Z" transform="translate(117.94 2689.73)"/><path class="cls-5" d="M611.38-2159.11H946v102.7c0,81.62-66.49,147.56-147.57,147.56H707.06V-1897c0,26,21.62,47.57,47.56,47.57H946v95.67H754.62c-78.92,0-143.24-64.32-143.24-143.24Zm95.68,160.54H798.4c28.65,0,51.89-23.79,51.89-52.44v-12.43H707.06Z" transform="translate(117.94 2689.73)"/></svg>